<svg xmlns="http://www.w3.org/2000/svg" viewBox="0 0 48 48" width="48" height="48">
    <!-- Outer Glow / Background Accent utilizing dynamic CSS variable -->
    <path d="M 24 2 C 24 16 34 14 38 10 C 30 18 34 22 46 24 C 34 26 30 30 38 38 C 34 34 24 32 24 46 C 24 32 14 34 10 38 C 18 30 14 26 2 24 C 14 22 18 18 10 10 C 14 14 24 16 24 2 Z" 
          fill="var(--md-sys-color-primary)" 
          opacity="0.15" 
          transform="scale(1.1) translate(-2, -2)"/>
    <!-- Foreground Star Shape -->
    <path d="M 24 2 C 24 16 34 14 38 10 C 30 18 34 22 46 24 C 34 26 30 30 38 38 C 34 34 24 32 24 46 C 24 32 14 34 10 38 C 18 30 14 26 2 24 C 14 22 18 18 10 10 C 14 14 24 16 24 2 Z" 
          fill="var(--md-sys-color-primary)" 
          stroke="var(--md-sys-color-on-primary)"
          stroke-width="1.5"
          stroke-linejoin="round"/>
</svg>
